<?xml version="1.0" encoding="UTF-8"?>
<svg xmlns="http://www.w3.org/2000/svg" xmlns:xlink="http://www.w3.org/1999/xlink" width="780pt" height="131pt" viewBox="0 0 780 131" version="1.1">
<g id="surface1">
<path style=" stroke:none;fill-rule:nonzero;fill:rgb(52.198792%,12.5%,16.499329%);fill-opacity:1;" d="M 0.125 0.171875 L 779.878906 0.171875 L 779.878906 130.484375 L 0.125 130.484375 L 0.125 0.171875 "/>
<path style=" stroke:none;fill-rule:nonzero;fill:rgb(13.299561%,43.899536%,48.199463%);fill-opacity:1;" d="M 7.90625 8.132813 L 772.097656 8.132813 L 772.097656 122.519531 L 7.90625 122.519531 L 7.90625 8.132813 "/>
<path style=" stroke:none;fill-rule:evenodd;fill:rgb(100%,100%,100%);fill-opacity:1;" d="M 687.808594 26.753906 C 689.277344 26.753906 690.683594 27.121094 692.035156 27.859375 C 693.382813 28.589844 694.441406 29.640625 695.210938 31.011719 C 695.984375 32.382813 696.371094 33.820313 696.371094 35.316406 C 696.371094 36.808594 695.992188 38.230469 695.230469 39.589844 C 694.480469 40.9375 693.425781 41.992188 692.066406 42.753906 C 690.71875 43.503906 689.296875 43.882813 687.808594 43.882813 C 686.316406 43.882813 684.894531 43.503906 683.535156 42.753906 C 682.1875 41.992188 681.132813 40.9375 680.371094 39.589844 C 679.621094 38.230469 679.242188 36.808594 679.242188 35.316406 C 679.242188 33.820313 679.628906 32.382813 680.394531 31.011719 C 681.171875 29.640625 682.230469 28.589844 683.582031 27.859375 C 684.929688 27.121094 686.339844 26.753906 687.808594 26.753906 Z M 687.820313 28.429688 C 686.640625 28.429688 685.511719 28.722656 684.429688 29.3125 C 683.351563 29.902344 682.496094 30.746094 681.871094 31.851563 C 681.253906 32.953125 680.941406 34.109375 680.941406 35.316406 C 680.941406 36.515625 681.246094 37.660156 681.847656 38.75 C 682.460938 39.835938 683.308594 40.6875 684.398438 41.296875 C 685.484375 41.910156 686.625 42.214844 687.820313 42.214844 C 689.019531 42.214844 690.160156 41.910156 691.238281 41.296875 C 692.328125 40.6875 693.179688 39.835938 693.789063 38.75 C 694.398438 37.660156 694.707031 36.515625 694.707031 35.316406 C 694.707031 34.109375 694.394531 32.953125 693.765625 31.851563 C 693.148438 30.746094 692.296875 29.902344 691.207031 29.3125 C 690.125 28.722656 688.996094 28.429688 687.820313 28.429688 Z M 683.9375 39.902344 L 683.9375 30.8125 L 685.785156 30.8125 C 687.511719 30.8125 688.480469 30.820313 688.691406 30.832031 C 689.300781 30.886719 689.773438 31.007813 690.109375 31.203125 C 690.453125 31.390625 690.738281 31.679688 690.960938 32.074219 C 691.191406 32.460938 691.308594 32.894531 691.308594 33.371094 C 691.308594 34.027344 691.089844 34.589844 690.660156 35.058594 C 690.234375 35.523438 689.632813 35.808594 688.859375 35.921875 C 689.132813 36.023438 689.347656 36.140625 689.496094 36.265625 C 689.644531 36.386719 689.851563 36.617188 690.109375 36.960938 C 690.179688 37.050781 690.402344 37.417969 690.78125 38.066406 L 691.855469 39.902344 L 689.574219 39.902344 L 688.8125 38.425781 C 688.300781 37.433594 687.875 36.8125 687.539063 36.558594 C 687.203125 36.296875 686.777344 36.167969 686.265625 36.167969 L 685.785156 36.167969 L 685.785156 39.902344 Z M 685.785156 34.734375 L 686.53125 34.734375 C 687.597656 34.734375 688.257813 34.695313 688.511719 34.613281 C 688.773438 34.53125 688.976563 34.390625 689.128906 34.1875 C 689.277344 33.980469 689.351563 33.742188 689.351563 33.484375 C 689.351563 33.230469 689.277344 33.007813 689.128906 32.8125 C 688.984375 32.609375 688.78125 32.46875 688.511719 32.386719 C 688.242188 32.296875 687.585938 32.253906 686.53125 32.253906 L 685.785156 32.253906 L 685.785156 34.734375 "/>
<path style=" stroke:none;fill-rule:evenodd;fill:rgb(100%,100%,100%);fill-opacity:1;" d="M 86.003906 101.988281 L 137.871094 101.988281 C 153.808594 101.988281 165.832031 93.476563 165.832031 79.863281 C 165.832031 70.140625 159.023438 63.816406 149.605469 61.265625 C 156.414063 58.710938 160.761719 53.121094 160.761719 46.070313 C 160.761719 32.453125 148.445313 25.648438 134.539063 25.648438 L 86.003906 25.648438 L 86.003906 56.160156 L 75.140625 56.160156 L 75.140625 69.53125 L 86.003906 69.53125 Z M 102.8125 39.019531 L 132.65625 39.019531 C 140.042969 39.019531 143.957031 43.03125 143.957031 47.527344 C 143.957031 52.148438 140.042969 56.160156 132.65625 56.160156 L 102.8125 56.160156 Z M 102.8125 69.53125 L 135.988281 69.53125 C 143.519531 69.53125 149.027344 73.664063 149.027344 79.132813 C 149.027344 84.484375 143.519531 88.617188 135.988281 88.617188 L 102.8125 88.617188 L 102.8125 69.53125 "/>
<path style=" stroke:none;fill-rule:evenodd;fill:rgb(100%,100%,100%);fill-opacity:1;" d="M 619.644531 103.605469 L 637.269531 103.605469 L 644.089844 89.074219 L 681.894531 89.074219 L 688.714844 103.605469 L 706.480469 103.605469 L 668.675781 26.269531 L 631.726563 26.269531 L 631.726563 39.074219 L 652.191406 39.074219 Z M 650.058594 76.265625 L 663.132813 48.558594 L 676.066406 76.265625 Z M 650.058594 76.265625 "/>
<path style=" stroke:none;fill-rule:nonzero;fill:rgb(100%,100%,100%);fill-opacity:1;" d="M 183.492188 102.3125 L 253.148438 102.3125 L 253.148438 88.933594 L 200.253906 88.933594 L 200.253906 69.84375 L 237.105469 69.84375 L 237.105469 56.46875 L 200.253906 56.46875 L 200.253906 39.320313 L 253.148438 39.320313 L 253.148438 25.945313 L 183.492188 25.945313 L 183.492188 56.46875 L 172.652344 56.46875 L 172.652344 69.84375 L 183.492188 69.84375 L 183.492188 102.3125 "/>
<path style=" stroke:none;fill-rule:nonzero;fill:rgb(100%,100%,100%);fill-opacity:1;" d="M 271.402344 103.28125 L 340.449219 103.28125 L 340.449219 71.542969 L 323.726563 71.542969 L 323.726563 89.855469 L 288.121094 89.855469 L 288.121094 26.617188 L 271.402344 26.617188 L 271.402344 103.28125 "/>
<path style=" stroke:none;fill-rule:nonzero;fill:rgb(100%,100%,100%);fill-opacity:1;" d="M 358.214844 103.28125 L 427.257813 103.28125 L 427.257813 71.542969 L 410.539063 71.542969 L 410.539063 89.855469 L 374.933594 89.855469 L 374.933594 26.617188 L 358.214844 26.617188 L 358.214844 103.28125 "/>
<path style=" stroke:none;fill-rule:evenodd;fill:rgb(100%,100%,100%);fill-opacity:1;" d="M 434.238281 65.929688 C 434.238281 89.496094 453.171875 107.8125 477.066406 107.8125 C 500.957031 107.8125 519.894531 89.496094 519.894531 65.929688 C 519.894531 42.363281 500.957031 24.046875 477.066406 24.046875 C 453.171875 24.046875 434.238281 42.363281 434.238281 65.929688 Z M 449.742188 65.929688 C 449.742188 50.304688 462.703125 38.136719 477.066406 38.136719 C 491.425781 38.136719 504.390625 50.304688 504.390625 65.929688 C 504.390625 81.554688 491.425781 93.722656 477.066406 93.722656 C 462.703125 93.722656 449.742188 81.554688 449.742188 65.929688 "/>
<path style=" stroke:none;fill-rule:nonzero;fill:rgb(100%,100%,100%);fill-opacity:1;" d="M 607.996094 104.898438 L 607.996094 27.847656 L 591.429688 27.847656 L 591.429688 74.128906 L 533.585938 26.285156 L 533.585938 103.335938 L 550.152344 103.335938 L 550.152344 57.058594 L 607.996094 104.898438 "/>
</g>
</svg>
