<?xml version="1.0" encoding="utf-8"?>
<!-- Generator: Adobe Illustrator 16.0.0, SVG Export Plug-In . SVG Version: 6.00 Build 0)  -->
<!DOCTYPE svg PUBLIC "-//W3C//DTD SVG 1.1//EN" "http://www.w3.org/Graphics/SVG/1.1/DTD/svg11.dtd">
<svg version="1.1" id="Layer_1" xmlns="http://www.w3.org/2000/svg" xmlns:xlink="http://www.w3.org/1999/xlink" x="0px" y="0px"
	 width="800px" height="143.333px" viewBox="-238.424 -63.44 800 143.333" enable-background="new -238.424 -63.44 800 143.333"
	 xml:space="preserve">
<g>
	<path fill="#FFC429" d="M-119.202,31.332l-25.851,6.414l-25.853,6.397c-26.084,6.231-44.054-6.29-51.454-12.637l-13.432,34.059
		c7.407,6.342,25.372,18.868,51.447,12.637l25.858-6.402l25.851-6.406c26.085-6.228,44.045,6.296,51.442,12.641l13.429-34.049
		C-75.145,37.633-93.121,25.119-119.202,31.332"/>
	<path fill="#FFC429" d="M-102.032-11.714l-25.851,6.409l-25.854,6.407c-26.087,6.222-44.064-6.294-51.452-12.646l-13.432,34.069
		c7.398,6.347,25.362,18.86,51.442,12.637l25.86-6.402l25.849-6.402c26.083-6.232,44.054,6.287,51.449,12.631l13.426-34.062
		C-57.983-5.419-75.942-17.923-102.032-11.714"/>
	<path fill="#FFC429" d="M-84.865-54.755l-25.851,6.406l-25.858,6.409c-26.081,6.222-44.047-6.294-51.447-12.641l-13.419,34.059
		c7.393,6.342,25.357,18.863,51.438,12.642l25.855-6.419l25.859-6.395c26.075-6.232,44.044,6.29,51.441,12.636l13.424-34.059
		C-40.81-48.455-58.784-60.981-84.865-54.755"/>
</g>
<g>
	<path fill="#02559F" d="M211.647-25.874c8.628,0,15.611-7.353,15.611-16.412c0-9.066-6.983-16.42-15.611-16.42
		c-8.629,0-15.613,7.354-15.613,16.42C196.031-33.224,203.016-25.874,211.647-25.874"/>
	<path fill="#02559F" d="M24.795-25.914c8.628,0,15.614-7.353,15.614-16.417c0-9.066-6.985-16.419-15.614-16.419
		c-8.626,0-15.618,7.353-15.618,16.419C9.177-33.264,16.169-25.914,24.795-25.914"/>
	<polygon fill="#02559F" points="4.071,-17.128 -31.888,72.192 -3.419,72.192 32.241,-17.128 	"/>
	<polygon fill="#02559F" points="173.954,-6.946 173.954,-17.771 160.557,-17.771 174.251,-52.228 144.432,-47.99 132.405,-17.771 
		117.546,-17.771 117.546,-6.946 128.091,-6.946 96.781,71.719 124.995,71.719 156.252,-6.946 	"/>
	<polygon fill="#02559F" points="190.394,-17.773 154.633,71.719 182.86,71.719 218.565,-17.773 	"/>
	<polygon fill="#02559F" points="317.205,-17.773 298.698,-17.773 254.993,11.842 280.479,-52.225 250.652,-47.992 203.005,71.719 
		231.219,71.719 251.421,20.824 259.321,71.719 287.341,71.719 277.833,10.304 	"/>
	<g>
		<path fill="#02559F" d="M372.281,7.279l-18.355,46.79c-2.586,6.583-9.663,9.985-15.827,7.578
			c-6.152-2.387-9.039-9.671-6.459-16.256l18.349-46.798c2.577-6.575,9.68-9.981,15.823-7.585
			C371.954-6.585,374.861,0.695,372.281,7.279 M399.671-13.675c-4.02-4.784-14.096-5.371-24.188-5.949h-17.817l12.946-32.601
			l-29.821,4.233l-37.889,95.164c-2.518,6.374-3.132,13.174-0.742,17.297c3.068,5.291,11.996,6.524,19.94,7.37
			c12.539,1.321,22.598,1.656,33.383-1.155c3.418-0.892,6.909-2.097,9.978-3.705c14.157-7.443,19.195-23.56,26.946-42.843
			C398.241,9.666,405.593-6.605,399.671-13.675"/>
		<path fill="#02559F" d="M465.781,7.274l-17.976,46.798c-2.522,6.585-9.574,9.982-15.758,7.578
			c-6.176-2.395-9.126-9.674-6.602-16.259l17.976-46.793c2.524-6.584,9.588-9.984,15.762-7.593
			C465.356-6.59,468.315,0.692,465.781,7.274 M477.925-17.661l-5.202,2.509c-4.249-2.362-8.482-4.723-13.026-5.864
			c-10.014-2.512-21.539,0.893-30.382,7.3c-6.533,4.743-11.248,12.323-13.438,18.027c-5.561,14.475-10.729,27.955-15.157,39.088
			c-2.034,5.131-3.184,10.747-1.902,15.73c1.096,4.206,4.288,8.105,8.021,10.417c6.573,4.084,14.813,3.273,22.396,1.957
			c4.309-0.756,8.426-1.659,12.535-2.58l-1.232,2.62h25.754l35.691-89.203h-24.058V-17.661z"/>
		<path fill="#02559F" d="M76.979-10.548c3.201,0.165,6.843,1.125,9.934,2.457c4.391,1.912,7.623,4.631,10.793,7.391l3.871-9.767
			c-8.838-10.127-26.736-14.37-39.229-10.407C50.037-16.973,42.953-5.182,42.777,5.348c-0.165,10.826,3.588,19.424,9.608,35.536
			c2.537,6.805,3.346,21.637-10,20.323c-6.217-0.607-14.031-4.322-18.56-7.766l-4.073,10.313c6.46,4.349,13.007,8.547,21.154,10.218
			c12.475,2.557,28.922-0.631,37.228-11.669c6.672-8.863,3.691-22.585,1.29-30.133C75.833,20.924,69.124,7.094,68.126-1.677
			C67.549-6.821,71.099-10.863,76.979-10.548"/>
	</g>
	<polygon fill="#02559F" points="531.463,-47.992 483.822,71.719 512.049,71.719 561.296,-52.23 	"/>
</g>
</svg>
